<svg xmlns="http://www.w3.org/2000/svg" viewBox="0 0 512 512">
  <defs>
    <linearGradient id="g" x1="0" y1="0" x2="1" y2="1">
      <stop offset="0" stop-color="#0a3a5c"/>
      <stop offset="0.55" stop-color="#1d7aa8"/>
      <stop offset="1" stop-color="#2bb89e"/>
    </linearGradient>
    <linearGradient id="h" x1="0" y1="0" x2="0" y2="1">
      <stop offset="0" stop-color="#9ff4ff" stop-opacity="0.95"/>
      <stop offset="1" stop-color="#9ff4ff" stop-opacity="0.55"/>
    </linearGradient>
  </defs>
  <rect width="512" height="512" rx="112" fill="url(#g)"/>
  <path d="M48 320 C 128 264, 192 376, 272 320 C 352 264, 416 376, 496 320 L 496 460 C 416 460, 352 460, 272 460 C 192 460, 128 460, 48 460 Z" fill="#0a3a5c" opacity="0.55"/>
  <path d="M48 360 C 128 308, 192 412, 272 360 C 352 308, 416 412, 496 360 L 496 480 L 48 480 Z" fill="#062032" opacity="0.7"/>
  <g transform="translate(256 224)">
    <path d="M0 -130 C 70 -60, 70 60, 0 130 C -70 60, -70 -60, 0 -130 Z" fill="url(#h)"/>
    <circle r="22" fill="#061018" opacity="0.85"/>
  </g>
</svg>
